<svg width="32" height="32" viewBox="0 0 32 32" fill="none" xmlns="http://www.w3.org/2000/svg">
<path opacity="0.4" d="M21.6534 4.8667H10.3467C7.05339 4.8667 4.38672 7.5467 4.38672 10.8267V23.3734C4.38672 26.6534 7.06672 29.3334 10.3467 29.3334H21.6401C24.9334 29.3334 27.6001 26.6534 27.6001 23.3734V10.8267C27.6134 7.53337 24.9334 4.8667 21.6534 4.8667Z" fill="#5575A5"/>
<path d="M19.1333 2.66663H12.8667C11.48 2.66663 10.3467 3.78663 10.3467 5.17329V6.42663C10.3467 7.81329 11.4667 8.93329 12.8533 8.93329H19.1333C20.52 8.93329 21.64 7.81329 21.64 6.42663V5.17329C21.6533 3.78663 20.52 2.66663 19.1333 2.66663Z" fill="#5575A5"/>
<path d="M20 17.6667C19.4533 17.6667 19 18.12 19 18.6667V20.2534L12.7066 13.96C12.32 13.5734 11.68 13.5734 11.2933 13.96C10.9066 14.3467 10.9066 14.9867 11.2933 15.3734L17.5866 21.6667H16C15.4533 21.6667 15 22.12 15 22.6667C15 23.2134 15.4533 23.6667 16 23.6667H20C20.5466 23.6667 21 23.2134 21 22.6667V18.6667C21 18.12 20.5466 17.6667 20 17.6667Z" fill="#5575A5"/>
</svg>
