<svg width="20" height="20" viewBox="0 0 20 20" fill="none" xmlns="http://www.w3.org/2000/svg">
<path d="M6.03341 1.66663H4.45008C2.62508 1.66663 1.66675 2.62496 1.66675 4.44163V6.02496C1.66675 7.84163 2.62508 8.79996 4.44175 8.79996H6.02508C7.84175 8.79996 8.80008 7.84163 8.80008 6.02496V4.44163C8.80841 2.62496 7.85008 1.66663 6.03341 1.66663Z" fill="currentColor"/>
<path opacity="0.4" d="M15.5583 1.66663H13.975C12.1583 1.66663 11.2 2.62496 11.2 4.44163V6.02496C11.2 7.84163 12.1583 8.79996 13.975 8.79996H15.5583C17.375 8.79996 18.3333 7.84163 18.3333 6.02496V4.44163C18.3333 2.62496 17.375 1.66663 15.5583 1.66663Z" fill="currentColor"/>
<path d="M15.5583 11.1917H13.975C12.1583 11.1917 11.2 12.15 11.2 13.9667V15.55C11.2 17.3667 12.1583 18.325 13.975 18.325H15.5583C17.375 18.325 18.3333 17.3667 18.3333 15.55V13.9667C18.3333 12.15 17.375 11.1917 15.5583 11.1917Z" fill="currentColor"/>
<path opacity="0.4" d="M6.03341 11.1917H4.45008C2.62508 11.1917 1.66675 12.15 1.66675 13.9667V15.55C1.66675 17.375 2.62508 18.3333 4.44175 18.3333H6.02508C7.84175 18.3333 8.80008 17.375 8.80008 15.5583V13.975C8.80841 12.15 7.85008 11.1917 6.03341 11.1917Z" fill="currentColor"/>
</svg>
