<svg width="20" height="20" viewBox="0 0 20 20" fill="none" xmlns="http://www.w3.org/2000/svg">
<path d="M5.83329 6.66663H3.33329C2.41663 6.66663 1.66663 5.91663 1.66663 4.99996V3.33329C1.66663 2.41663 2.41663 1.66663 3.33329 1.66663H5.83329C6.74996 1.66663 7.49996 2.41663 7.49996 3.33329V4.99996C7.49996 5.91663 6.74996 6.66663 5.83329 6.66663Z" stroke="currentColor" stroke-width="1.5" stroke-linecap="round" stroke-linejoin="round"/>
<path d="M17.3334 5.83333H14.3334C13.7834 5.83333 13.3334 5.38332 13.3334 4.83332V3.50001C13.3334 2.95001 13.7834 2.5 14.3334 2.5H17.3334C17.8834 2.5 18.3334 2.95001 18.3334 3.50001V4.83332C18.3334 5.38332 17.8834 5.83333 17.3334 5.83333Z" stroke="currentColor" stroke-width="1.5" stroke-linecap="round" stroke-linejoin="round"/>
<path d="M17.3334 12.0833H14.3334C13.7834 12.0833 13.3334 11.6333 13.3334 11.0833V9.75001C13.3334 9.20001 13.7834 8.75 14.3334 8.75H17.3334C17.8834 8.75 18.3334 9.20001 18.3334 9.75001V11.0833C18.3334 11.6333 17.8834 12.0833 17.3334 12.0833Z" stroke="currentColor" stroke-width="1.5" stroke-linecap="round" stroke-linejoin="round"/>
<path d="M7.5 4.16663H13.3333" stroke="currentColor" stroke-width="1.5" stroke-miterlimit="10" stroke-linecap="round" stroke-linejoin="round"/>
<path d="M10.4166 4.16663V15C10.4166 15.9166 11.1666 16.6666 12.0833 16.6666H13.3333" stroke="currentColor" stroke-width="1.5" stroke-miterlimit="10" stroke-linecap="round" stroke-linejoin="round"/>
<path d="M10.4166 10.4166H13.3333" stroke="currentColor" stroke-width="1.5" stroke-miterlimit="10" stroke-linecap="round" stroke-linejoin="round"/>
<path d="M17.3334 18.3333H14.3334C13.7834 18.3333 13.3334 17.8833 13.3334 17.3333V16C13.3334 15.45 13.7834 15 14.3334 15H17.3334C17.8834 15 18.3334 15.45 18.3334 16V17.3333C18.3334 17.8833 17.8834 18.3333 17.3334 18.3333Z" stroke="currentColor" stroke-width="1.5" stroke-linecap="round" stroke-linejoin="round"/>
</svg>
