<svg width="32" height="32" viewBox="0 0 32 32" fill="none" xmlns="http://www.w3.org/2000/svg">
<path opacity="0.4" d="M14 21.3333H18C21.3333 21.3333 23.3333 18.9333 23.3333 16V9.2133C23.3333 7.8133 22.1866 6.66663 20.7866 6.66663H11.2267C9.82667 6.66663 8.68 7.8133 8.68 9.2133V16C8.66666 18.9333 10.6667 21.3333 14 21.3333Z" fill="#5575A5"/>
<path d="M13.6666 2.66663V6.66663H11.6666V2.66663C11.6666 2.11996 12.12 1.66663 12.6666 1.66663C13.2133 1.66663 13.6666 2.11996 13.6666 2.66663Z" fill="#5575A5"/>
<path d="M20.3334 2.66663V6.66663H18.3334V2.66663C18.3334 2.11996 18.7867 1.66663 19.3334 1.66663C19.88 1.66663 20.3334 2.11996 20.3334 2.66663Z" fill="#5575A5"/>
<path d="M17 21.3334V29.3334C17 29.88 16.5467 30.3334 16 30.3334C15.4533 30.3334 15 29.88 15 29.3334V21.3334H17Z" fill="#5575A5"/>
</svg>
