<svg width="17" height="16" viewBox="0 0 17 16" fill="none" xmlns="http://www.w3.org/2000/svg">
<path d="M16.4997 8.18379C16.4997 7.63999 16.4547 7.09323 16.3587 6.55823H8.66016V9.63891H13.0688C12.8858 10.6324 12.298 11.5114 11.4373 12.0699V14.0688H14.0674C15.612 12.6755 16.4997 10.6178 16.4997 8.18379Z" fill="#4285F4"/>
<path d="M8.66021 16.0002C10.8615 16.0002 12.7179 15.2918 14.0704 14.069L11.4403 12.07C10.7085 12.558 9.76381 12.8343 8.66317 12.8343C6.53384 12.8343 4.7284 11.4262 4.08061 9.5332H1.36646V11.5938C2.75202 14.2953 5.57414 16.0002 8.66021 16.0002Z" fill="#34A853"/>
<path d="M4.07791 9.53303C3.73603 8.53943 3.73603 7.46356 4.07791 6.46999V4.40936H1.36676C0.209126 6.66988 0.209126 9.33311 1.36676 11.5937L4.07791 9.53303Z" fill="#FBBC04"/>
<path d="M8.66021 3.16595C9.82381 3.14832 10.9484 3.57749 11.7912 4.36529L14.1215 2.08125C12.646 0.723182 10.6876 -0.0234656 8.66021 5.08277e-05C5.57414 5.08277e-05 2.75202 1.70499 1.36646 4.40938L4.07761 6.47001C4.72241 4.574 6.53084 3.16595 8.66021 3.16595Z" fill="#EA4335"/>
</svg>
