<svg width="20" height="20" viewBox="0 0 20 20" fill="none" xmlns="http://www.w3.org/2000/svg">
<path d="M4.16663 7.5V13.3333" stroke="currentColor" stroke-width="1.5" stroke-linecap="round" stroke-linejoin="round"/>
<path d="M4.37496 7.08329C5.87073 7.08329 7.08329 5.87073 7.08329 4.37496C7.08329 2.87919 5.87073 1.66663 4.37496 1.66663C2.87919 1.66663 1.66663 2.87919 1.66663 4.37496C1.66663 5.87073 2.87919 7.08329 4.37496 7.08329Z" stroke="currentColor" stroke-width="1.5" stroke-linecap="round" stroke-linejoin="round"/>
<path d="M4.16663 18.3334C5.54734 18.3334 6.66663 17.2141 6.66663 15.8334C6.66663 14.4527 5.54734 13.3334 4.16663 13.3334C2.78591 13.3334 1.66663 14.4527 1.66663 15.8334C1.66663 17.2141 2.78591 18.3334 4.16663 18.3334Z" stroke="currentColor" stroke-width="1.5" stroke-linecap="round" stroke-linejoin="round"/>
<path d="M15.8334 18.3334C17.2141 18.3334 18.3334 17.2141 18.3334 15.8334C18.3334 14.4527 17.2141 13.3334 15.8334 13.3334C14.4527 13.3334 13.3334 14.4527 13.3334 15.8334C13.3334 17.2141 14.4527 18.3334 15.8334 18.3334Z" stroke="currentColor" stroke-width="1.5" stroke-linecap="round" stroke-linejoin="round"/>
<path d="M4.27502 7.5C4.65002 8.95833 5.98336 10.0417 7.55836 10.0333L10.4167 10.025C12.6 10.0167 14.4584 11.4167 15.1417 13.3667" stroke="currentColor" stroke-width="1.5" stroke-linecap="round" stroke-linejoin="round"/>
</svg>
