<svg width="20" height="20" viewBox="0 0 20 20" fill="none" xmlns="http://www.w3.org/2000/svg">
<path d="M15.4166 10.5416V13.625C15.4166 16.225 12.9916 18.3333 9.99992 18.3333C7.00825 18.3333 4.58325 16.225 4.58325 13.625V10.5416C4.58325 13.1416 7.00825 15 9.99992 15C12.9916 15 15.4166 13.1416 15.4166 10.5416Z" stroke="currentColor" stroke-width="1.5" stroke-linecap="round" stroke-linejoin="round"/>
<path d="M15.4166 6.37496C15.4166 7.13329 15.2082 7.83329 14.8416 8.43329C13.9499 9.89996 12.1166 10.8333 9.99992 10.8333C7.88325 10.8333 6.04992 9.89996 5.15825 8.43329C4.79159 7.83329 4.58325 7.13329 4.58325 6.37496C4.58325 5.07496 5.19158 3.89996 6.16658 3.04996C7.14991 2.19163 8.49992 1.66663 9.99992 1.66663C11.4999 1.66663 12.8499 2.19163 13.8333 3.04163C14.8083 3.89996 15.4166 5.07496 15.4166 6.37496Z" stroke="currentColor" stroke-width="1.5" stroke-linecap="round" stroke-linejoin="round"/>
<path d="M15.4166 6.37496V10.5416C15.4166 13.1416 12.9916 15 9.99992 15C7.00825 15 4.58325 13.1416 4.58325 10.5416V6.37496C4.58325 3.77496 7.00825 1.66663 9.99992 1.66663C11.4999 1.66663 12.8499 2.19163 13.8333 3.04163C14.8083 3.89996 15.4166 5.07496 15.4166 6.37496Z" stroke="currentColor" stroke-width="1.5" stroke-linecap="round" stroke-linejoin="round"/>
</svg>
