<svg width="32" height="32" viewBox="0 0 32 32" fill="none" xmlns="http://www.w3.org/2000/svg">
<path opacity="0.4" d="M16.0001 2.66663C12.5067 2.66663 9.66675 5.50663 9.66675 8.99996C9.66675 12.4266 12.3467 15.2 15.8401 15.32C15.9467 15.3066 16.0534 15.3066 16.1334 15.32C16.1601 15.32 16.1734 15.32 16.2001 15.32C16.2134 15.32 16.2134 15.32 16.2267 15.32C19.6401 15.2 22.3201 12.4266 22.3334 8.99996C22.3334 5.50663 19.4934 2.66663 16.0001 2.66663Z" fill="#5575A5"/>
<path d="M22.7733 18.8667C19.0533 16.3867 12.9866 16.3867 9.23995 18.8667C7.54661 20 6.61328 21.5334 6.61328 23.1734C6.61328 24.8134 7.54661 26.3334 9.22661 27.4534C11.0933 28.7067 13.5466 29.3334 15.9999 29.3334C18.4533 29.3334 20.9066 28.7067 22.7733 27.4534C24.4533 26.32 25.3866 24.8 25.3866 23.1467C25.3733 21.5067 24.4533 19.9867 22.7733 18.8667Z" fill="#5575A5"/>
</svg>
