<svg width="32" height="32" viewBox="0 0 32 32" fill="none" xmlns="http://www.w3.org/2000/svg">
<path opacity="0.4" d="M21.5868 2.66663H10.4134C5.56008 2.66663 2.66675 5.55996 2.66675 10.4133V21.5733C2.66675 26.44 5.56008 29.3333 10.4134 29.3333H21.5734C26.4268 29.3333 29.3201 26.44 29.3201 21.5866V10.4133C29.3334 5.55996 26.4401 2.66663 21.5868 2.66663Z" fill="#5575A5"/>
<path d="M12.8 21.04C12.5467 21.04 12.2933 20.9467 12.0933 20.7467L8.77335 17.4267C7.98668 16.64 7.98668 15.3734 8.77335 14.5867L12.0933 11.2667C12.48 10.88 13.12 10.88 13.5067 11.2667C13.8933 11.6534 13.8933 12.2934 13.5067 12.68L10.1867 16L13.5067 19.3334C13.8933 19.72 13.8933 20.36 13.5067 20.7467C13.3067 20.9334 13.0533 21.04 12.8 21.04Z" fill="#5575A5"/>
<path d="M19.2 21.04C18.9467 21.04 18.6934 20.9467 18.4934 20.7467C18.1067 20.36 18.1067 19.72 18.4934 19.3334L21.8134 16L18.4934 12.6667C18.1067 12.28 18.1067 11.64 18.4934 11.2534C18.88 10.8667 19.52 10.8667 19.9067 11.2534L23.2267 14.5734C24.0134 15.36 24.0134 16.6267 23.2267 17.4134L19.9067 20.7334C19.72 20.9334 19.4534 21.04 19.2 21.04Z" fill="#5575A5"/>
</svg>
