<svg width="20" height="20" viewBox="0 0 20 20" fill="none" xmlns="http://www.w3.org/2000/svg">
<path d="M17.425 9.26665C17.425 13.3416 14.4666 17.1583 10.425 18.275C10.15 18.35 9.84995 18.35 9.57495 18.275C5.53328 17.1583 2.57495 13.3416 2.57495 9.26665V5.6083C2.57495 4.92497 3.09163 4.14997 3.7333 3.89164L8.37494 1.99166C9.41661 1.56666 10.5916 1.56666 11.6333 1.99166L16.275 3.89164C16.9083 4.14997 17.4333 4.92497 17.4333 5.6083L17.425 9.26665Z" stroke="currentColor" stroke-width="1.5" stroke-linecap="round" stroke-linejoin="round"/>
<path d="M10 10.4166C10.9205 10.4166 11.6667 9.67045 11.6667 8.74998C11.6667 7.82951 10.9205 7.08331 10 7.08331C9.07957 7.08331 8.33337 7.82951 8.33337 8.74998C8.33337 9.67045 9.07957 10.4166 10 10.4166Z" stroke="currentColor" stroke-width="1.5" stroke-miterlimit="10" stroke-linecap="round" stroke-linejoin="round"/>
<path d="M10 10.4166V12.9166" stroke="currentColor" stroke-width="1.5" stroke-miterlimit="10" stroke-linecap="round" stroke-linejoin="round"/>
</svg>
