<svg width="16" height="17" viewBox="0 0 16 17" fill="none" xmlns="http://www.w3.org/2000/svg">
<path d="M14.5 8.50002C14.5002 9.62223 14.2099 10.7254 13.6574 11.7021C13.1048 12.6788 12.3087 13.4959 11.3467 14.0737C10.3847 14.6515 9.28942 14.9703 8.16759 14.9993C7.04575 15.0282 5.93554 14.7662 4.945 14.2388L2.81687 14.9481C2.64068 15.0069 2.4516 15.0154 2.27083 14.9728C2.09006 14.9301 1.92474 14.8379 1.79341 14.7066C1.66207 14.5753 1.56991 14.41 1.52725 14.2292C1.48459 14.0484 1.49312 13.8593 1.55187 13.6831L2.26125 11.555C1.79759 10.6833 1.53862 9.71739 1.504 8.73063C1.46937 7.74387 1.66 6.76219 2.06142 5.8601C2.46283 4.95802 3.06448 4.15924 3.8207 3.52439C4.57691 2.88954 5.46782 2.43532 6.42579 2.19619C7.38376 1.95707 8.38362 1.93932 9.34948 2.14431C10.3153 2.3493 11.2218 2.77163 12.0001 3.37925C12.7783 3.98687 13.4079 4.7638 13.8411 5.65108C14.2743 6.53835 14.4996 7.51265 14.5 8.50002Z" fill="currentColor"/>
</svg>
